<svg xmlns="http://www.w3.org/2000/svg" x="0px" y="0px" width="58px" height="58px" viewBox="0 0 600 600">

    <path fill="url(#linear)"
          d="M599.948,259.907L340.035,0l-40.041,40.031L259.959,0L0.052,259.971l39.982,39.982L0.057,339.99    L260.068,600l39.956-40.057l40.012,40.012l259.913-259.971l-40.038-40.038L599.948,259.907z M340.035,33.551l226.362,226.357    l-23.263,23.263L340.035,80.077l-179.9,179.831l123.087,123.081l-23.263,23.263L113.621,259.907L340.035,33.551z M233.735,299.947 l66.279-66.251l66.25,66.25l-66.267,66.267L233.735,299.947z M33.602,259.971L259.959,33.556l23.253,23.253L80.059,259.907 l179.9,179.894l123.081-123.081l23.263,23.263L259.959,486.328L33.602,259.971z M259.988,566.427L33.596,339.978l23.211-23.251    l203.152,203.152l179.894-179.894l-123.06-123.06l23.236-23.226l146.292,146.286L259.988,566.427z M340.035,566.404l-23.241-23.241    l203.078-203.179L340.041,160.159L216.957,283.168l-23.259-23.261l146.338-146.28l226.362,226.357L340.035,566.404z"></path>

    <linearGradient id="linear" x1="0" y1="300" x2="600" y2="300" gradientUnits="userSpaceOnUse">
        <stop offset="0" stop-color="#43adff"/>
        <stop offset="1" stop-color="#ff5dfc"/>
    </linearGradient>

</svg>